# xmcd
#
# Track frame offsets: 
#        150
#        13137
#        28484
#        43736
#        58891
#        72736
#        84008
#        96855
#        109233
#        124638
#        137459
#        150045
#        165566
#        180188
#        201932
#        216065
#        229663
#        244115
#        265082
#        276109
#
# Disc length: 3879 seconds
#
# Revision: 0
# Processed by: cddbd v1.5.2PL0 Copyright (c) Steve Scherf et al.
# Submitted via: ExactAudioCopy v1.0b3
#
DISCID=100f2514
DTITLE=Various Artist - Blues Mania
DYEAR=1900
DGENRE=Blues
TTITLE0=Nat King Cole - I love you
TTITLE1=Lena Horne - Lover man
TTITLE2=Lester Young - Blue Lester
TTITLE3=Glenn Miller - Moonlight serenade
TTITLE4=Frank Sinatra - Night and day
TTITLE5=Frankie Laine - Answer me
TTITLE6=Duke Ellington and His Orchestra - Carnegie blues
TTITLE7=Dooley Wilson - As times goes by
TTITLE8=Django Reinhardt - Petite Lili
TTITLE9=Billie Holiday - I gotta right to sing the blues
TTITLE10=Bessie Smith - I won't be you
TTITLE11=Benny Goodman - Body and soul
TTITLE12=Art. Tatum - Last goodbye blues
TTITLE13=Bunny Berigan and His Orchestra - I can't get started 
TTITLE14=Count Basie - Let me dream
TTITLE15=Ella Fitzgerald - Jim
TTITLE16=Jo Stafford and Johnny Mercer  - Blues in the night
TTITLE17=J. Garland, D.Ellington and His Orchestra - The Blues
TTITLE18=King Oliver's Creole Jazz Band - Canal Street Blues
TTITLE19=Louis Armstrong - West End Blues
EXTD=
EXTT0=
EXTT1=
EXTT2=
EXTT3=
EXTT4=
EXTT5=
EXTT6=
EXTT7=
EXTT8=
EXTT9=
EXTT10=
EXTT11=
EXTT12=
EXTT13=
EXTT14=
EXTT15=
EXTT16=
EXTT17=
EXTT18=
EXTT19=
PLAYORDER=
